<?xml version="1.0" encoding="UTF-8"?>
<!DOCTYPE svg PUBLIC "-//W3C//DTD SVG 1.0//EN" "http://www.w3.org/TR/2001/REC-SVG-20010904/DTD/svg10.dtd">
<!-- Creator: CorelDRAW 2020 (64 Bit) -->
<svg xmlns="http://www.w3.org/2000/svg" xml:space="preserve" width="999.067mm" height="349.473mm" version="1.0" style="shape-rendering:geometricPrecision; text-rendering:geometricPrecision; image-rendering:optimizeQuality; fill-rule:evenodd; clip-rule:evenodd"
viewBox="0 0 278043.6 97259.4"
 xmlns:xlink="http://www.w3.org/1999/xlink"
 xmlns:xodm="http://www.corel.com/coreldraw/odm/2003">
 <defs>
  <style type="text/css">
   <![CDATA[
    .fil3 {fill:#373435}
    .fil1 {fill:#3A3872}
    .fil6 {fill:#373435;fill-rule:nonzero}
    .fil7 {fill:#ED3237;fill-rule:nonzero}
    .fil5 {fill:#3E4095;fill-rule:nonzero}
    .fil13 {fill:url(#id0)}
    .fil2 {fill:url(#id1)}
    .fil10 {fill:url(#id2)}
    .fil11 {fill:url(#id3)}
    .fil12 {fill:url(#id4)}
    .fil8 {fill:url(#id5)}
    .fil9 {fill:url(#id6)}
    .fil4 {fill:url(#id7)}
    .fil0 {fill:url(#id8)}
   ]]>
  </style>
  <linearGradient id="id0" gradientUnits="userSpaceOnUse" x1="207946.3" y1="74363.1" x2="198560.8" y2="74363.1">
   <stop offset="0" style="stop-opacity:1; stop-color:#3E4095"/>
   <stop offset="1" style="stop-opacity:1; stop-color:#00AFEF"/>
  </linearGradient>
  <linearGradient id="id1" gradientUnits="userSpaceOnUse" xlink:href="#id0" x1="50732.2" y1="31260.3" x2="109724.2" y2="31260.3">
  </linearGradient>
  <linearGradient id="id2" gradientUnits="userSpaceOnUse" xlink:href="#id0" x1="139409.2" y1="17113.6" x2="148794.7" y2="17113.6">
  </linearGradient>
  <linearGradient id="id3" gradientUnits="userSpaceOnUse" xlink:href="#id0" x1="234500.6" y1="67762.3" x2="228396.2" y2="67762.3">
  </linearGradient>
  <linearGradient id="id4" gradientUnits="userSpaceOnUse" xlink:href="#id0" x1="221185.8" y1="66121.7" x2="211800.3" y2="66121.7">
  </linearGradient>
  <linearGradient id="id5" gradientUnits="userSpaceOnUse" xlink:href="#id0" x1="112854.9" y1="23714.5" x2="118959.2" y2="23714.5">
  </linearGradient>
  <linearGradient id="id6" gradientUnits="userSpaceOnUse" xlink:href="#id0" x1="126169.7" y1="25355.1" x2="135555.2" y2="25355.1">
  </linearGradient>
  <linearGradient id="id7" gradientUnits="userSpaceOnUse" xlink:href="#id0" x1="144842.2" y1="85124.4" x2="182757.3" y2="67618.6">
  </linearGradient>
  <radialGradient id="id8" gradientUnits="userSpaceOnUse" gradientTransform="matrix(2.59333 2.33013E-16 3.42822E-16 2.59333 -221507 -77483)" cx="139021.8" cy="48629.7" r="139021.8" fx="139021.8" fy="48629.7">
   <stop offset="0" style="stop-opacity:1; stop-color:#fafafa"/>
   <stop offset="0.831373" style="stop-opacity:1; stop-color:#fafafa"/>
   <stop offset="1" style="stop-opacity:1; stop-color:#fafafa"/>
  </radialGradient>
 </defs>
 <g id="Camada_x0020_1">
  <metadata id="CorelCorpID_0Corel-Layer"/>
  <path class="fil0" d="M-0 0l278043.6 0 0 75460.6c0,11989.4 -9809.4,21798.8 -21798.8,21798.8l-234446 0c-11989.4,0 -21798.8,-9809.4 -21798.8,-21798.8l0 -75460.6z"/>
  <g id="_1613745997056">
   <path class="fil1" d="M37099.9 80820.1c-6417.9,-3874.4 -10709.3,-10914.7 -10709.3,-18958 0,-12132.6 9764.5,-21982.8 21863.4,-22125.6 -75.6,879 -116.2,1767.9 -116.2,2666.6 0,1934.9 178.8,3828.3 520,5664.3l-138.1 -1.8c-7619.4,0 -13796.4,6177.1 -13796.4,13796.4 0,3588.6 1371.1,6856.8 3616.9,9310.8 -17.6,-135.5 -33.7,-271.7 -48.7,-408.1 -510.5,-4639.3 411.8,-9105.2 2410.2,-12959.2 -868.9,2861.3 -1186.2,5941.1 -839.3,9101.5 459.7,4176.4 792.5,7094.5 4964.9,8250.7 -2588.4,1507.5 -5163.9,3383.6 -7727.2,5662.2z"/>
   <path class="fil2" d="M81560.4 9896.5c12555.4,0 23356.7,7506.3 28163.9,18275.6l-10724.9 0c-3901.5,-5410.7 -10258.5,-8933.9 -17439,-8933.9 -8567.7,0 -15962.9,5014.5 -19413.1,12268.7l85.7 -178.2c2870.2,-2559.9 6428,-4426.7 10461.3,-5274.7 4567.2,-960.1 9101.8,-477.9 13132.2,1135.4 -2932.5,-586 -6028.5,-601.6 -9140.1,52.2 -12394.5,2606.3 -20971.1,13448.3 -13017.4,25382.5 -3407.5,-2464.7 -7523.3,-4009.1 -11984.4,-4270.1 -621.2,-2439.9 -952.3,-4996 -952.3,-7629.4 0,-17026 13802.2,-30828.2 30828.2,-30828.2z"/>
   <path class="fil3" d="M36992.8 86018.4c48790.4,-38595.1 115400.1,11231.4 143927.5,-22784.6 -23969.3,37179 -95715.6,-7398.1 -143927.5,22784.6z"/>
   <path class="fil1" d="M40825.9 85992.2c20522,-10530.9 44720.2,-12380.8 74435.3,-4174 -22573.5,-3075.1 -49260.5,-5185.9 -74435.3,4174z"/>
   <path class="fil4" d="M181252.3 64359c-4277.1,14252.3 -16882.8,19936.2 -38400.8,16453.8 19408.6,729.8 32328.8,-4646.2 38400.8,-16453.8z"/>
   <path class="fil5" d="M76955.4 62725l14179.1 -25037.6 -13402.2 0 0 -6382.1 21365.9 0 0 5919.5 -14031.2 24714 14974.6 0 0 6382.1 -23086.2 0 0 -5595.9zm38153.3 5595.9l-14419.6 -37015.6 7205.2 0 9952.3 28154.6 9998.4 -28154.6 7205.2 0 -14336.3 37015.6 -5605.1 0zm54659.9 -7291.7c-1049.8,1510.1 -2351.9,2861 -3909.3,4054.4 -3449.9,2636 -7288.6,3958.6 -11515.4,3958.6 -4957.7,0 -9286.3,-1720.3 -12986,-5151.8 -1840.6,-1692.6 -3301.9,-3634.8 -4365.6,-5826.9 -1304.2,-2654.5 -1951.6,-5457.2 -1951.6,-8398.4 0,-5309.2 1960.9,-9868.9 5882.6,-13661.1 3736.6,-3616.6 8157.8,-5420.3 13254.2,-5420.3 4569.2,0 8638.9,1452.1 12199.8,4347.1 1322.6,1063.9 2358.6,2099.6 3117.1,3107.8 360.8,475.3 713.2,1017.5 1058.1,1624.6l-8983.8 0c-2280.7,-1797.9 -4820.1,-2697.5 -7622.5,-2697.5 -2201.4,0 -4310.2,675.2 -6335.7,2035 -1970.1,1303.9 -3459.1,3052.2 -4467.4,5234.8 -813.9,1776 -1220.8,3607.4 -1220.8,5512.6 0,3561.2 1285.4,6631.9 3847.6,9221.7 2432.4,2460.1 5253.6,3690.4 8444.5,3690.4 1776,0 3366.8,-351.6 4800.5,-1063.6 327.3,-163.8 658.7,-352.7 993.8,-567.6l9759.9 0z"/>
   <g>
    <path class="fil6" d="M149700.3 44143.4l0 -4708 3498.1 0 0 4708 2055.9 0 0 3077.3 -2055.9 0 0 11520.1 -3498.1 0 0 -11520.1 -1849.9 0 0 -3077.3 1849.9 0zm7412.7 8017.6l0 -8017.6 3498.1 0 0 8008.9c0,1148.5 302.5,2064.6 903,2748.5 600.6,683.8 1297.5,1025.8 2091,1025.8 486.6,0 938.1,-140.3 1350.1,-416.4 416.5,-280.6 749.6,-705.8 1003.8,-1275.6 258.6,-574.3 385.8,-1266.9 385.8,-2082.2l0 -8008.9 3708.5 0 0 14597.4 -3090.4 0 0 -1446.6c-631.2,697 -1315.1,1223 -2047.1,1573.7 -727.7,355.1 -1468.5,530.4 -2209.4,530.4 -736.4,0 -1442.2,-166.6 -2112.9,-495.3 -670.7,-328.8 -1271.3,-815.3 -1801.7,-1451 -530.4,-640 -942.5,-1407.1 -1236.2,-2305.8 -293.7,-903 -442.7,-1893.7 -442.7,-2985.2zm15408.3 6579.8l0 -14387 3292.1 0 0 1030.2c477.8,-477.8 964.4,-846 1464.1,-1104.7 499.7,-258.6 1170.4,-438.4 2012,-530.4l0 3489.3c-942.5,179.7 -1613.2,355.1 -2003.3,521.7 -394.5,166.6 -701.4,491 -929.3,968.7 -223.6,477.8 -337.5,1214.3 -337.5,2209.4l0 7802.8 -3498.1 0zm21983.8 -12317.9c451.5,429.6 819.7,894.3 1109,1402.8 284.9,512.9 504.1,1069.6 653.2,1674.5 149.1,609.3 223.6,1218.6 223.6,1836.7 0,1144.1 -241.1,2283.8 -723.3,3414.8 -486.6,1135.4 -1179.2,2121.7 -2086.6,2959 -416.5,416.4 -1017,754 -1788.5,999.4 -775.9,249.9 -1595.7,372.6 -2468,372.6 -1043.3,0 -2016.4,-184.1 -2915.1,-552.3 -898.6,-368.2 -1586.9,-916.2 -2064.6,-1643.9l0 1854.3 -3287.7 0 0 -19305.4 3287.7 0 0 6167.7c1512.3,-1113.4 3108,-1670.2 4786.9,-1670.2 1078.3,0 2086.6,228 3024.7,679.4 942.5,455.9 1692.1,1056.5 2248.8,1810.4zm-9034.6 7794c464.7,521.7 986.3,911.8 1565,1166 583,258.7 1187.9,385.8 1810.4,385.8 1008.2,0 1867.4,-311.3 2577.6,-933.7 447.1,-394.6 797.8,-903 1052,-1525.5 258.7,-626.9 385.8,-1284.4 385.8,-1977 0,-425.2 -57,-841.6 -175.4,-1249.3 -114,-403.3 -293.7,-780.3 -543.6,-1126.6 -249.9,-346.3 -556.7,-644.4 -924.9,-889.9 -872.4,-618.1 -1784.1,-924.9 -2744.1,-924.9 -933.7,0 -1797.3,306.9 -2590.7,924.9 -464.7,337.6 -832.9,828.5 -1117.8,1464.1 -280.6,640 -420.9,1293.2 -420.9,1968.2 0,1144.1 372.6,2051.5 1126.6,2717.8zm14373.8 -7794c1753.4,-1678.9 3660.3,-2516.2 5711.8,-2516.2 653.2,0 1271.3,83.3 1863,245.5 591.8,162.2 1139.8,381.4 1643.9,657.5 504.1,276.1 995,622.5 1464.1,1038.9 469.1,416.4 881.1,885.5 1231.8,1402.7 960,1297.6 1442.2,2731 1442.2,4295.9 0,898.6 -157.8,1788.5 -473.4,2669.6 -320,881.1 -775.9,1705.2 -1376.5,2476.7 -368.2,486.6 -841.6,903 -1415.9,1249.3 -574.3,346.3 -1214.3,604.9 -1920,775.9 -705.7,171 -1424.7,258.6 -2152.3,258.6 -771.5,0 -1534.3,-92.1 -2288.2,-276.2 -754,-184.1 -1455.3,-464.7 -2108.5,-846 -653.2,-381.4 -1196.7,-837.2 -1630.7,-1367.7 -1310.7,-1600 -1968.2,-3309.6 -1968.2,-5120.1 0,-1740.3 657.5,-3384.1 1977,-4944.7zm2678.4 2266.3c-718.9,846 -1078.4,1823.6 -1078.4,2937 0,1060.8 359.5,1998.9 1078.4,2809.9 828.5,995.1 1836.7,1490.4 3024.7,1490.4 631.2,0 1240.5,-149 1828,-442.7 583,-293.7 1017,-644.4 1297.5,-1047.7 618.1,-819.7 924.9,-1771 924.9,-2849.3 0,-512.9 -78.9,-999.5 -236.7,-1468.5 -157.8,-464.7 -385.7,-872.3 -688.2,-1223 -885.5,-995.1 -1977,-1490.4 -3265.8,-1490.4 -1170.4,0 -2134.8,429.6 -2884.4,1284.4z"/>
    <path class="fil7" d="M215064.2 44616.8l1762.2 0 0 1600c556.7,-640 1201.1,-1117.8 1933.2,-1424.7 732,-311.2 1569.4,-464.7 2511.8,-464.7 1038.9,0 1959.5,192.9 2770.4,578.6 806.6,385.8 1446.6,938.1 1920,1657 324.4,504.1 556.7,1100.3 701.4,1779.7 140.3,679.4 210.4,1683.3 210.4,3011.5l0 7386.4 -1788.5 0 0 -7912.4c0,-1670.2 -320,-2880 -955.6,-3634 -640,-754 -1661.4,-1131 -3064.1,-1131 -824.1,0 -1543,166.6 -2165.5,495.3 -618.1,328.8 -1109,802.2 -1468.5,1420.3 -223.6,381.4 -381.4,824.1 -469.1,1315 -92.1,491 -135.9,1350.2 -135.9,2573.2l0 6873.5 -1762.2 0 0 -14124zm28541.6 7627.5l-12756.3 0c109.6,1538.6 670.7,2783.6 1670.1,3730.4 1003.8,951.3 2253.2,1424.7 3752.4,1424.7 1065.2,0 2020.8,-276.2 2866.9,-828.5 850.4,-552.3 1503.6,-1319.5 1968.2,-2301.4l2051.5 0c-648.8,1564.9 -1565,2770.4 -2739.7,3607.7 -1179.2,837.3 -2542.5,1258.1 -4089.9,1258.1 -2055.9,0 -3796.2,-732 -5216.5,-2196.2 -1420.3,-1464.1 -2130.4,-3226.3 -2130.4,-5277.9 0,-2152.3 697,-3927.7 2086.6,-5330.5 1389.6,-1407.2 3169.3,-2108.5 5334.9,-2108.5 2121.6,0 3853.2,732 5194.6,2191.8 1337,1459.7 2007.7,3357.8 2007.7,5698.7l0 131.5zm-1998.9 -1578.1c-341.9,-1569.3 -973.1,-2752.9 -1889.3,-3546.3 -916.2,-793.4 -2112.9,-1188 -3585.8,-1188 -1372.1,0 -2533.7,425.2 -3485,1280 -946.8,850.4 -1529.9,2003.3 -1744.7,3454.3l10704.7 0zm5313 8074.6l0 -12309.2 -2682.8 0 0 -1814.8 2682.8 0 0 -4576.4 1814.8 0 0 4576.4 2682.7 0 0 1814.8 -2682.7 0 0 12309.2 -1814.8 0z"/>
   </g>
   <polygon class="fil8" points="112854.9,26766.7 118959.2,26766.7 118959.2,20662.3 112854.9,20662.3 "/>
   <polygon class="fil1" points="126169.6,14558 120065.3,14558 120065.3,20662.3 126169.6,20662.3 "/>
   <polygon class="fil9" points="126169.6,30047.9 135555.2,30047.9 135555.2,20662.3 126169.6,20662.3 "/>
   <polygon class="fil10" points="139409.2,21806.4 148794.7,21806.4 148794.7,12420.8 139409.2,12420.8 "/>
   <polygon class="fil1" points="151313.3,29551.8 163331.7,29551.8 163331.7,17533.4 151313.3,17533.4 "/>
   <polygon class="fil11" points="234500.6,64710.1 228396.2,64710.1 228396.2,70814.4 234500.6,70814.4 "/>
   <polygon class="fil1" points="221185.8,76918.8 227290.2,76918.8 227290.2,70814.4 221185.8,70814.4 "/>
   <polygon class="fil12" points="221185.8,61428.9 211800.3,61428.9 211800.3,70814.4 221185.8,70814.4 "/>
   <polygon class="fil13" points="207946.3,69670.4 198560.8,69670.4 198560.8,79055.9 207946.3,79055.9 "/>
   <polygon class="fil1" points="196042.1,61925 184023.7,61925 184023.7,73943.4 196042.1,73943.4 "/>
  </g>
 </g>
</svg>
